<svg xmlns="http://www.w3.org/2000/svg" viewBox="0 164.1 841.9 258" xml:space="preserve">
  <path fill-rule="evenodd" clip-rule="evenodd" d="M739 235a23 23 0 0 0-24 23 23 23 0 0 0 24 23c6 0 11-2 16-7 4-4 6-10 6-16s-2-12-6-16c-5-5-10-7-16-7M739 174a23 23 0 0 0-24 23 23 23 0 0 0 24 23c6 0 11-2 16-7 4-4 6-10 6-16s-2-12-6-16c-5-5-10-7-16-7M739 296a23 23 0 0 0-24 23v70a23 23 0 0 0 24 23c6 0 11-2 16-6 4-5 6-10 6-17v-70c0-6-2-12-6-16-5-4-10-7-16-7M840 196c0-6-3-11-7-15-4-5-10-7-16-7a23 23 0 0 0-23 22v193a23 23 0 0 0 23 23c6 0 12-2 16-6 4-5 7-10 7-17V196zM178 181c-4-5-10-7-16-7a23 23 0 0 0-23 22v54a89 89 0 1 0 1 147l6 9c4 4 10 6 16 6s12-2 16-6c5-5 7-10 7-17V196c0-6-2-11-7-15M90 371a47 47 0 1 1 0-95 47 47 0 0 1 0 95M677 242c-4-5-10-7-16-7a23 23 0 0 0-22 16 89 89 0 1 0 0 146l6 9c4 4 10 6 16 6s12-2 16-6c5-5 7-10 7-17V258c0-6-2-12-7-16m-88 129a47 47 0 1 1 0-95 47 47 0 0 1 0 95M475 388v-83c0-43-25-70-63-70-22 0-38 7-49 22l-3 4-3-4a49 49 0 0 0-43-22c-20 0-36 7-45 20l-6 10v-7c0-6-3-12-7-16-4-5-10-7-16-7a23 23 0 0 0-23 23v131a23 23 0 0 0 23 23c6 0 12-2 16-6a23 23 0 0 0 7-19v-73c0-24 11-37 31-37 18 0 29 12 29 32v80a23 23 0 0 0 23 23c6 0 12-2 16-6 5-5 7-10 7-17v-75c0-24 12-37 31-37s30 12 30 32v82c0 5 2 11 6 15 5 4 10 6 17 6 6 0 11-2 16-6 4-4 6-10 6-15l1-2-1-1"/>
</svg>